<?xml version='1.0' encoding='iso-8859-1'?>
<!DOCTYPE svg PUBLIC '-//W3C//DTD SVG 1.1//EN' 'http://www.w3.org/Graphics/SVG/1.1/DTD/svg11.dtd'>
<svg version="1.1" xmlns="http://www.w3.org/2000/svg" viewBox="0 0 297 297" xmlns:xlink="http://www.w3.org/1999/xlink" enable-background="new 0 0 297 297">
  <g fill="#ffb5a7">
    <path d="M106.669,71.205H75.15L1.745,173.973c-2.018,2.824-2.308,6.531-0.756,9.635c0.68,1.359,16.712,32.188,75.425,49.123   L106.669,71.205z"/>
    <path d="M219.705,58.088V40.287c0-5.174-4.195-9.369-9.369-9.369H86.664c-5.174,0-9.369,4.195-9.369,9.369v17.801H219.705z"/>
    <path d="m176.986,71.205h-56.973l-33.274,177.643c9.498,7.197 28.674,17.234 61.761,17.234s52.263-10.037 61.761-17.234l-33.275-177.643z"/>
    <path d="m295.255,173.973l-73.405-102.768h-31.518l30.255,161.525c58.713-16.936 74.744-47.764 75.425-49.123 1.551-3.103 1.259-6.81-0.757-9.634z"/>
  </g>
</svg>
